<svg id="_84_data_process_outline" xmlns="http://www.w3.org/2000/svg" viewBox="0 0 500 500" data-imageid="data-processing-40" imageName="Data Processing" class="illustrations_image" style="width: 204px;"><defs><style>.cls-1_data-processing-40{fill:#fff;}.cls-2_data-processing-40{fill:#f4a28c;}.cls-3_data-processing-40{fill:#a5a5a5;}.cls-4_data-processing-40{opacity:.51;}.cls-4_data-processing-40,.cls-5_data-processing-40,.cls-6_data-processing-40,.cls-7_data-processing-40,.cls-8_data-processing-40{fill:none;}.cls-9_data-processing-40{fill:#e6e6e6;}.cls-5_data-processing-40{opacity:.03;}.cls-6_data-processing-40{opacity:.74;}.cls-7_data-processing-40{opacity:.08;}.cls-8_data-processing-40{opacity:.2;}.cls-10_data-processing-40{fill:#24285b;}.cls-11_data-processing-40{fill:#000001;}.cls-12_data-processing-40{fill:#ffd200;}.cls-13_data-processing-40{fill:#68e1fd;}</style></defs><g id="monitor_data-processing-40"><rect class="cls-3_data-processing-40" x="78.7" y="61.72" width="365.89" height="271.84"/><polygon class="cls-3_data-processing-40" points="233.99 306.4 220.09 394.69 312.78 394.69 291.47 306.4 233.99 306.4"/><rect class="cls-9_data-processing-40" x="78.7" y="279.25" width="365.89" height="54.31"/><rect class="cls-1_data-processing-40" x="183.26" y="198.21" width="38.32" height="48.5"/><g class="cls-7_data-processing-40"><path class="cls-11_data-processing-40" d="m85.78,174.86s13.8-4.86,16.27,11.49c2.47,16.35,6.77,33.54,24.95,33.12,18.18-.42,52.14-9.22,72.69,18.87,20.54,28.09,20.96,78.91-18.45,95.22h-43.03l-28.67-47.42,23.79-40.67-34.27-13.84-16.77-18.87,3.48-37.9Z"/></g><circle class="cls-3_data-processing-40" cx="263.68" cy="303.16" r="14.7"/><rect class="cls-9_data-processing-40" x="198.94" y="379.22" width="130.36" height="28.37"/><circle class="cls-10_data-processing-40" cx="108.44" cy="93.49" r="6.4"/><circle class="cls-13_data-processing-40 targetColor" cx="127.49" cy="93.49" r="6.4" style="fill: rgb(104, 225, 253);"/><circle class="cls-12_data-processing-40" cx="145.44" cy="93.49" r="6.4"/><rect class="cls-1_data-processing-40" x="240.5" y="151.16" width="38.32" height="95.55"/><rect class="cls-1_data-processing-40" x="299.88" y="125.94" width="38.32" height="120.77"/><rect class="cls-1_data-processing-40" x="116.68" y="145.45" width="14.58" height="11.27"/><g class="cls-4_data-processing-40"><rect class="cls-1_data-processing-40" x="140.9" y="145.45" width="40.71" height="11.27"/></g><rect class="cls-1_data-processing-40" x="116.68" y="163.64" width="14.58" height="11.27"/><g class="cls-4_data-processing-40"><rect class="cls-1_data-processing-40" x="140.9" y="163.64" width="40.71" height="11.27"/></g><g class="cls-4_data-processing-40"><rect class="cls-1_data-processing-40" x="278.37" y="87.09" width="145.99" height="11.35"/></g></g><g id="sd_data-processing-40" class="cls-5_data-processing-40"><ellipse class="cls-11_data-processing-40" cx="250" cy="414" rx="235" ry="24.28"/></g><g id="person_data-processing-40"><polygon class="cls-2_data-processing-40" points="83.52 182.59 88.34 197.06 76.89 204.33 72.77 179.26 83.52 182.59"/><path class="cls-2_data-processing-40" d="m68.84,165.27c2.46-6.01,10.46-7.24,14.9-2.5,4.87,5.2,10.75,13.48,4.1,17.98-10.17,6.89-19.51-5.98-19.51-5.98,0,0-1.37-4.94.5-9.49Z"/><path class="cls-2_data-processing-40" d="m76.28,174.15s-2.61-2.18-3.79.92c-1.18,3.1,3.42,4.59,4.8,3.03,1.38-1.56-1.01-3.95-1.01-3.95Z"/><path class="cls-13_data-processing-40 targetColor" d="m68.79,204.21s-40.98,24.81-46.37,83.06c-.93,10.01,5.53,19.23,15.31,21.58l48.03,11.58-16.97-116.22Z" style="fill: rgb(104, 225, 253);"/><g class="cls-8_data-processing-40"><path class="cls-1_data-processing-40" d="m68.79,204.21s-40.98,24.81-46.37,83.06c-.93,10.01,5.53,19.23,15.31,21.58l48.03,11.58-16.97-116.22Z"/></g><rect class="cls-12_data-processing-40" x="44.25" y="287.28" width="38.29" height="52.49" transform="translate(272.19 71.2) rotate(52.18)"/><path class="cls-13_data-processing-40 targetColor" d="m59.31,216.4c3.89-8.75,11.5-15.3,20.67-18.05,17.52-5.26,50.8-16.31,60.63.08,13.46,22.44-7.26,110.52-7.26,110.52l-58.88,4.57s-32.39-58.42-15.16-97.12Z" style="fill: rgb(104, 225, 253);"/><polygon class="cls-10_data-processing-40" points="133.36 308.95 125.61 410.18 116.91 410.18 102.44 331.53 75.37 313.53 133.36 308.95"/><polygon class="cls-10_data-processing-40" points="75.37 313.53 60.86 410.18 69.21 410.18 99.95 329.88 75.37 313.53"/><g class="cls-7_data-processing-40"><path class="cls-11_data-processing-40" d="m85.08,196.81s-27.54,88.71,51.99,94.59l-3.71,17.55-58.88,4.57s-20.75-32.58-19.87-78.34c0,0,.5-22.63,16.43-32.63,0,0,6.08-4.48,14.04-5.75Z"/></g><path class="cls-13_data-processing-40 targetColor" d="m60.86,410.18l-8.15,6c-1.39,1.03-.67,3.23,1.06,3.23h13.65c.99,0,1.79-.8,1.79-1.79v-7.44h-8.35Z" style="fill: rgb(104, 225, 253);"/><path class="cls-13_data-processing-40 targetColor" d="m125.27,410.18l7.67,6c1.36,1.06.61,3.24-1.12,3.24h-9.72c-2.87,0-5.19-2.32-5.19-5.19v-4.04h8.35Z" style="fill: rgb(104, 225, 253);"/><path class="cls-10_data-processing-40" d="m67.86,180.18s2.47,9.04,8.28,7.31-2.8-15.06,0-17.21,13.4-5.59,7.99-15.27c-5.41-9.68-14.88-2.8-17.24,3.87-2.37,6.67-10.75,8.61.97,21.3Z"/><path class="cls-13_data-processing-40 targetColor" d="m100.84,213.96c.4-15.81,15.54-27.1,30.8-22.96,22.28,6.03,52.67,20.95,61.11,57.79,13.77,60.13-55.68,60.17-55.68,60.17l-3.71-9.65s53.9-17.64,29.45-47.64c-20.18-24.76-62.74-6.69-61.97-37.71Z" style="fill: rgb(104, 225, 253);"/><g class="cls-8_data-processing-40"><path class="cls-1_data-processing-40" d="m100.84,213.96c.4-15.81,15.54-27.1,30.8-22.96,22.28,6.03,52.67,20.95,61.11,57.79,13.77,60.13-55.68,60.17-55.68,60.17l-3.71-9.65s53.9-17.64,29.45-47.64c-20.18-24.76-62.74-6.69-61.97-37.71Z"/></g><path class="cls-2_data-processing-40" d="m134.18,301.45s-7.37,3.91-6.3,12.08c1.08,8.17,2.15,12.04,7.31,9.03,5.16-3.01,1.86-13.6,1.86-13.6l-2.88-7.5Z"/></g><g id="connecting_data-processing-40"><rect class="cls-10_data-processing-40" x="360.38" y="127.37" width="93.82" height="69.03"/><path class="cls-1_data-processing-40" d="m425.2,160.98c-.46,0-.9.05-1.34.12.31-.83.49-1.73.49-2.67,0-4.24-3.44-7.68-7.68-7.68-1.64,0-3.15.52-4.4,1.39-.77-5.13-5.19-9.07-10.53-9.07-5.89,0-10.66,4.77-10.66,10.66,0,1.74.43,3.38,1.17,4.83-.52-.09-1.05-.14-1.59-.14-5.42,0-9.81,4.39-9.81,9.81s4.17,9.57,9.39,9.79v.02s34.96,0,34.96,0c4.71,0,8.53-3.82,8.53-8.53s-3.82-8.53-8.53-8.53Z"/><g class="cls-6_data-processing-40"><path class="cls-1_data-processing-40" d="m407.29,283.34c-.8,0-1.46-.65-1.46-1.46v-2.91c0-.8.65-1.46,1.46-1.46s1.46.65,1.46,1.46v2.91c0,.8-.65,1.46-1.46,1.46Zm0-14.55c-.8,0-1.46-.65-1.46-1.46v-2.91c0-.8.65-1.46,1.46-1.46s1.46.65,1.46,1.46v2.91c0,.8-.65,1.46-1.46,1.46Zm0-14.55c-.8,0-1.46-.65-1.46-1.46v-2.91c0-.8.65-1.46,1.46-1.46s1.46.65,1.46,1.46v2.91c0,.8-.65,1.46-1.46,1.46Zm0-14.55c-.8,0-1.46-.65-1.46-1.46v-2.91c0-.8.65-1.46,1.46-1.46s1.46.65,1.46,1.46v2.91c0,.8-.65,1.46-1.46,1.46Zm0-14.55c-.8,0-1.46-.65-1.46-1.46v-2.91c0-.8.65-1.46,1.46-1.46s1.46.65,1.46,1.46v2.91c0,.8-.65,1.46-1.46,1.46Zm0-14.55c-.8,0-1.46-.65-1.46-1.46v-2.91c0-.8.65-1.46,1.46-1.46s1.46.65,1.46,1.46v2.91c0,.8-.65,1.46-1.46,1.46Z"/></g><rect class="cls-12_data-processing-40" x="360.38" y="297.02" width="93.82" height="69.03"/><path class="cls-1_data-processing-40" d="m430.92,336.83l-4.47-3.5c.06-.54.11-1.17.11-1.84s-.05-1.3-.11-1.84l4.48-3.5c.83-.66,1.06-1.82.53-2.79l-4.65-8.05c-.5-.91-1.59-1.37-2.69-.97l-5.28,2.12c-1.01-.73-2.07-1.35-3.17-1.84l-.8-5.6c-.13-1.06-1.06-1.87-2.15-1.87h-9.33c-1.09,0-2.02.8-2.15,1.85l-.8,5.62c-1.06.48-2.11,1.09-3.16,1.84l-5.29-2.12c-.99-.38-2.18.05-2.67.95l-4.66,8.06c-.55.93-.32,2.14.53,2.81l4.47,3.5c-.07.68-.11,1.28-.11,1.84s.03,1.15.11,1.84l-4.48,3.5c-.83.66-1.06,1.82-.53,2.79l4.65,8.05c.5.91,1.58,1.38,2.69.97l5.28-2.12c1.01.73,2.07,1.34,3.17,1.84l.8,5.6c.13,1.07,1.05,1.87,2.15,1.87h9.33c1.09,0,2.02-.8,2.15-1.85l.8-5.62c1.06-.48,2.1-1.09,3.16-1.84l5.29,2.12c.26.1.52.15.79.15.79,0,1.51-.43,1.88-1.1l4.67-8.09c.52-.95.29-2.11-.54-2.78Zm-22.87,2.78c-4.47,0-8.11-3.64-8.11-8.11s3.64-8.11,8.11-8.11,8.11,3.64,8.11,8.11-3.64,8.11-8.11,8.11Z"/></g></svg>